Coordinates
version=1
nRows=8
nColumns=36
inDegrees=yes

Units are S.I. units (second, meters, Newtons, ...)
If the header above contains a line with 'inDegrees', this indicates whether rotational values are in degrees (yes) or radians (no).

endheader
time	pelvis_tilt	pelvis_list	pelvis_rotation	pelvis_tx	pelvis_ty	pelvis_tz	hip_flexion_r	hip_adduction_r	hip_rotation_r	knee_angle_r	knee_angle_r_beta	ankle_angle_r	subtalar_angle_r	mtp_angle_r	hip_flexion_l	hip_adduction_l	hip_rotation_l	knee_angle_l	knee_angle_l_beta	ankle_angle_l	subtalar_angle_l	mtp_angle_l	lumbar_extension	lumbar_bending	lumbar_rotation	arm_flex_r	arm_add_r	arm_rot_r	elbow_flex_r	pro_sup_r	arm_flex_l	arm_add_l	arm_rot_l	elbow_flex_l	pro_sup_l
      0.34000000	     -0.06241410	     -1.23786894	      1.20764352	      0.27346110	      1.04777510	     -0.24550073	     -1.74053674	      6.59879949	     -2.38893665	      5.35242659	      0.09341747	      5.40441702	    -10.87858122	     -6.03699599	     30.88247468	     -6.29535645	     -4.80688028	     60.28195919	      1.05211867	     -5.39645327	     -0.18738896	     -6.03699599	    -11.46915645	      3.82219029	      7.11578846	      0.07624906	     -9.09314826	    -12.18248338	     41.21886798	    109.46202721	     -8.42857948	    -10.16901531	     -1.55887114	     35.88244899	    109.93181420
      0.35000000	     -0.14904333	     -1.06409793	      0.90518032	      0.28534651	      1.04793761	     -0.24470640	     -2.87669645	      6.48333462	     -1.92875005	      4.43886164	      0.07747275	      5.47505825	    -10.67730054	     -6.05765998	     31.26106788	     -5.97417739	     -5.24717048	     57.21000279	      0.99850291	     -5.02972937	     -0.55093022	     -6.05765998	    -11.44946651	      3.45874052	      7.72568662	      0.36313438	     -9.36248171	    -11.98871231	     41.61845561	    109.47511661	     -8.96421393	    -10.38404417	     -1.92989132	     36.14042568	    109.85896801
      0.36000000	     -0.22952793	     -0.94063106	      0.64098227	      0.29722511	      1.04780379	     -0.24408691	     -4.00647142	      6.40413800	     -1.52231926	      3.55704672	      0.06208218	      5.60647856	    -10.46273857	     -6.08323230	     31.48678822	     -5.66215991	     -5.61476441	     53.81778072	      0.93929747	     -4.77722207	     -1.07413637	     -6.08323230	    -11.44346266	      3.16503580	      8.28752001	      0.65663841	     -9.64072999	    -11.75713476	     42.03852905	    109.38139536	     -9.47451792	    -10.52197607	     -2.36196353	     36.39979416	    109.63141139
      0.37000000	     -0.59240463	     -0.91029606	      0.43905838	      0.30902303	      1.04686758	     -0.24367670	     -4.78675511	      6.40460347	     -1.13777596	      2.74581355	      0.04792349	      5.77626585	    -10.23577664	     -6.09779566	     31.93623769	     -5.35578042	     -5.76018190	     50.21188838	      0.87636278	     -4.39759394	     -1.47034373	     -6.09779566	    -11.07510862	      3.00649297	      8.80482039	      0.85363811	     -9.92897379	    -11.58570803	     42.47025089	    109.30496059	     -9.96879048	    -10.64880469	     -2.68120523	     36.53319770	    109.43731369
      0.38000000	     -0.88485487	     -0.94337731	      0.24427782	      0.32077973	      1.04568558	     -0.24331237	     -5.60565342	      6.46826328	     -0.77376452	      2.03195794	      0.03546436	      6.00246694	    -10.02072414	     -6.11016171	     32.14745236	     -5.10921030	     -5.87000872	     46.28792744	      0.80787674	     -4.05824866	     -1.94328755	     -6.11016171	    -10.80166807	      2.93022303	      9.32059608	      1.09123239	    -10.23541525	    -11.40863409	     42.93480451	    109.23803882	    -10.40848904	    -10.71390042	     -3.02519961	     36.64857825	    109.23858616
      0.39000000	     -0.79361896	     -0.78561520	      0.00778178	      0.33266469	      1.04489474	     -0.24313492	     -6.81198820	      6.28436282	     -0.82927241	      1.39391367	      0.02432838	      6.67551476	     -9.26053868	     -6.19213149	     31.63161951	     -4.62877882	     -6.11880613	     41.78911148	      0.72935759	     -4.59682191	     -3.63257710	     -6.19213149	    -11.03610808	      2.61077745	      9.55512426	      1.58773927	    -10.57248277	    -10.84257026	     43.27672300	    109.21943491	    -11.00439759	    -10.57310441	     -4.36519302	     37.13354542	    108.70625577
      0.40000000	     -1.24073215	     -0.90046026	     -0.18413865	      0.34448118	      1.04279142	     -0.24295435	     -7.34293454	      6.40972831	     -0.59199158	      0.94749733	      0.01653695	      7.07248806	     -9.06592519	     -6.20811497	     31.71074677	     -4.43134073	     -6.08557857	     37.30915331	      0.65116757	     -4.11652102	     -3.90977911	     -6.20811497	    -10.57397978	      2.65043861	     10.02192119	      1.72414295	    -10.89133622	    -10.67644567	     43.77512186	    109.12467611	    -11.40505809	    -10.57437687	     -4.67677869	     37.12932444	    108.48404870
      0.41000000	     -1.68819381	     -1.08050400	     -0.39136181	      0.35624971	      1.04036597	     -0.24274123	     -7.79636917	      6.60117627	     -0.41064739	      0.67326430	      0.01175068	      7.56663513	     -8.77298775	     -6.22220491	     31.66105709	     -4.30130526	     -5.95270020	     32.59164335	      0.56883149	     -3.74331560	     -4.20425537	     -6.22220491	    -10.13789504	      2.75116278	     10.45607601	      1.93089795	    -11.21216981	    -10.52610801	     44.30490743	    108.99590054	    -11.76005798	    -10.54724840	     -5.04468978	     37.13043459	    108.22260495
